# xmcd
#
# Track frame offsets:
#	150
#	14432
#	27830
#	42335
#	56723
#	69652
#	80801
#	93597
#	106357
#	118448
#	134824
#	147488
#	159168
#	169184
#	181843
#	195428
#	207660
#	220988
#	233588
#	245780
#	258710
#	270887
#	282771
#	295176
#	308510
#
# Disc length: 4310 seconds
# Revision: 0
# Processed by: cddbd v1.5.2PL0 Copyright (c) Steve Scherf et al.
# Submitted via: dBpowerAMP V12.0
#
DISCID=8010d419
DTITLE=Various Artist - Let Me Tell You About The Blues - Texas
DYEAR=1934
DGENRE=Blues
TTITLE0=Mississippi Sheiks - Sales Tax
TTITLE1=Bo Carter - Backache Blues
TTITLE2=Joe Pullum - CWA Blues
TTITLE3=Bernice Edwards - Butcher Shop Blues
TTITLE4=Dallas Jamboree Jug Band - Elm Street Woman Blues
TTITLE5=Black Boy Shine - Ice Pick And Pistol Woman Blues
TTITLE6=The Black Ace - Black Ace
TTITLE7=Black Ivory King - The Flying Crow
TTITLE8=Andrew Hogg - Kind-Hearted Blues
TTITLE9=Andy Boy - Evil Blues
TTITLE10=Robert Johnson - Traveling Riverside Blues
TTITLE11=Buddy Woods - Don't Sell It (Don't Give It Away)
TTITLE12=Smith Casey - East Texas Rag
TTITLE13=Lightnin' Hopkins - Short Haired Woman
TTITLE14=Roy Brown - Deep Sea Diver
TTITLE15=Charlie Bradix - Wee Wee Hours
TTITLE16=Little Willie Littlefield - Little Willie's Boogie
TTITLE17=Clarence ''Gatemouth'' Brown - My Time Is Expensive
TTITLE18=Lester Williams - Winter Time Blues
TTITLE19=Manny Nichols - Throw A Little Boogie
TTITLE20=Bea Johnson - No Letter Blues
TTITLE21=Johnny Beck - You Gotta Lay Down Mama
TTITLE22=Little T-Bone - Love's A Gamble
TTITLE23=Lonnie Lyons - Down In The Groovy
TTITLE24=Clarence Garlow - Bon Ton Roula
EXTD=
EXTT0=
EXTT1=
EXTT2=
EXTT3=
EXTT4=
EXTT5=
EXTT6=
EXTT7=
EXTT8=
EXTT9=
EXTT10=
EXTT11=
EXTT12=
EXTT13=
EXTT14=
EXTT15=
EXTT16=
EXTT17=
EXTT18=
EXTT19=
EXTT20=
EXTT21=
EXTT22=
EXTT23=
EXTT24=
PLAYORDER=
